<?xml version="1.0" encoding="UTF-8"?>
<!DOCTYPE svg PUBLIC "-//W3C//DTD SVG 1.1//EN"
    "http://www.w3.org/Graphics/SVG/1.1/DTD/svg11.dtd"><svg xmlns="http://www.w3.org/2000/svg" height="350.0000" stroke-opacity="1" viewBox="0 0 350 350" font-size="1" width="350.0000" xmlns:xlink="http://www.w3.org/1999/xlink" stroke="rgb(0,0,0)" version="1.1"><defs></defs><g stroke-linejoin="miter" stroke-opacity="1.0" fill-opacity="1.0" stroke="rgb(0,0,0)" stroke-width="1.32978591878348" fill="rgb(255,91,0)" stroke-linecap="butt" stroke-miterlimit="10.0"><path d="M 1738.5840,1795.7680 v -3097.9326 c 0.0000,-1.7144 -1.3898,-3.1041 -3.1041 -3.1041h -3097.9326 c -1.7144,-0.0000 -3.1041,1.3898 -3.1041 3.1041v 3097.9326 c -0.0000,1.7144 1.3898,3.1041 3.1041 3.1041h 3097.9326 c 1.7144,0.0000 3.1041,-1.3898 3.1041 -3.1041Z"/></g><g stroke-linejoin="miter" stroke-opacity="1.0" fill-opacity="1.0" stroke="rgb(31,59,77)" stroke-width="10.0" fill="rgb(55,120,191)" stroke-linecap="butt" stroke-miterlimit="10.0"><path d="M 231.9044,199.1735 c -6.5752,-4.2877 -13.1152,-7.7867 -19.2598 -10.5532c -6.1129,-2.8337 -11.8532,-4.8861 -16.9524 -6.0190c -5.0992,-1.1329 -9.5573,-1.3461 -13.0386 -0.6439c -3.4496,0.6350 -5.8994,2.1369 -7.1053 4.6959c -0.3225,0.6844 -0.5721,1.4451 -0.7554 2.2850c -0.2019,0.8795 -0.3442,1.8524 -0.4338 2.9225c -0.1174,1.1290 -0.1892,2.3702 -0.2221 3.7267c -0.0695,1.4342 -0.1067,2.9976 -0.1172 4.6911c -0.0543,1.7866 -0.0869,3.7137 -0.1017 5.7790c -0.0630,2.1674 -0.1106,4.4780 -0.1448 6.9246c -0.0828,2.5497 -0.1514,5.2340 -0.2053 8.0409c -0.0986,2.9015 -0.1787,5.9174 -0.2377 9.0310c -0.0955,3.1911 -0.1634,6.4660 -0.1992 9.8044c -0.0611,3.3920 -0.0818,6.8296 -0.0568 10.2906c 0.0177,6.9908 0.2719,13.9611 0.8031 20.7365c 0.2824,3.3520 0.6446,6.6330 1.0897 9.8252c 0.4665,3.1468 1.0203,6.1956 1.6626 9.1325c 0.6693,2.8797 1.4288,5.6441 2.2781 8.2831c 0.8783,2.5774 1.8454,5.0313 2.8990 7.3556c 1.0818,2.2646 2.2206,4.3540 3.4072 6.2773c 1.2092,1.8751 2.4601,3.5968 3.7435 5.1734c 2.6174,3.0458 5.3315,5.5820 8.0761 7.6606c 5.5755,3.9739 11.1058,6.4721 16.2050 7.6050c 5.0992,1.1329 9.7674,0.9004 13.7860 -0.9421c 2.0525,-1.0129 3.9844,-2.5170 5.7863 -4.5809c 0.9263,-1.0857 1.8284,-2.3291 2.7061 -3.7406c 0.9004,-1.4596 1.7824,-3.1002 2.6459 -4.9325c 0.8916,-1.8920 1.7482,-3.9408 2.5721 -6.1401c 0.8529,-2.2609 1.6739,-4.6741 2.4636 -7.2297c 0.8166,-2.6127 1.6002,-5.3645 2.3495 -8.2411c 0.7707,-2.9220 1.5027,-5.9600 2.1929 -9.0959c 1.4141,-6.3432 2.6188,-12.9894 3.5738 -19.7641c 0.4613,-3.3530 0.8467,-6.7096 1.1510 -10.0475c 0.2790,-3.2843 0.4684,-6.5322 0.5640 -9.7233c 0.0590,-3.1136 0.0176,-6.1565 -0.1270 -9.1121c -0.1892,-2.8609 -0.4853,-5.6262 -0.8889 -8.2839c -0.4521,-2.5547 -1.0124,-5.0003 -1.6789 -7.3298c -0.7147,-2.2273 -1.5331,-4.3435 -2.4514 -6.3462c -0.9621,-1.9096 -2.0192,-3.7161 -3.1655 -5.4204c -1.1829,-1.6267 -2.4484,-3.1650 -3.7900 -4.6181c -1.3693,-1.3943 -2.8076,-2.7183 -4.3078 -3.9759c -1.5188,-1.2181 -3.0930,-2.3839 -4.7157 -3.5005Z"/></g><g stroke-linejoin="miter" stroke-opacity="1.0" fill-opacity="1.0" stroke="rgb(31,59,77)" stroke-width="10.0" fill="rgb(55,120,191)" stroke-linecap="butt" stroke-miterlimit="10.0"><path d="M 122.4682,294.4194 c 2.0315,-1.3968 4.0471,-2.9115 6.0408 -4.5244c 1.9967,-1.6622 3.9705,-3.4057 5.9157 -5.2131c 3.8962,-3.7129 7.6732,-7.6045 11.2865 -11.5639c 7.2348,-8.0561 13.7970,-16.0900 19.3503 -23.5381c 5.5533,-7.4481 10.0975,-14.3105 13.3111 -20.2678c 1.6109,-3.0474 2.8936,-5.9418 3.8102 -8.6840c 0.4613,-1.4202 0.8322,-2.8214 1.1082 -4.2075c 0.2790,-1.4354 0.4642,-2.8724 0.5512 -4.3169c 0.0911,-1.5132 0.0828,-3.0149 -0.0196 -4.5127c -0.0976,-1.5787 -0.2887,-3.1638 -0.5684 -4.7600c -0.2744,-1.6846 -0.6369,-3.3861 -1.0829 -5.1050c -0.4406,-1.8077 -0.9647,-3.6327 -1.5678 -5.4707c -0.5982,-1.9184 -1.2759,-3.8430 -2.0287 -5.7644c -0.7491,-1.9845 -1.5741,-3.9524 -2.4714 -5.8903c -1.7882,-3.9790 -3.8718,-7.7228 -6.2211 -11.0963c -1.1766,-1.6540 -2.4216,-3.1831 -3.7313 -4.5715c -1.3130,-1.3327 -2.6916,-2.5062 -4.1321 -3.5079c -1.4453,-0.9215 -2.9530,-1.6583 -4.5191 -2.2019c -1.5719,-0.4476 -3.2024,-0.6961 -4.8871 -0.7422c -1.6908,0.0561 -3.4357,0.3133 -5.2298 0.7699c -1.8001,0.5558 -3.6489,1.3036 -5.5415 2.2371c -1.8979,1.0224 -3.8388,2.2186 -5.8173 3.5795c -1.9830,1.4345 -4.0028,3.0195 -6.0540 4.7440c -2.0546,1.7809 -4.0911,3.6428 -6.1036 5.5672c -2.0146,1.9605 -4.0044,3.9682 -5.9635 6.0077c -3.9220,4.1411 -7.7181,8.3499 -11.3450 12.5355c -7.2573,8.4304 -13.8284,16.6105 -19.3816 24.0586c -5.5533,7.4481 -10.0887,14.1642 -13.2798 19.7473c -1.5973,2.8212 -2.8609,5.3983 -3.7517 7.7124c -0.4473,1.1880 -0.8023,2.3250 -1.0604 3.4128c -0.2603,1.1239 -0.4245,2.2136 -0.4884 3.2741c -0.0672,1.1168 -0.0335,2.1957 0.0958 3.2473c 0.1249,1.1253 0.3444,2.2377 0.6535 3.3463c 0.3037,1.1975 0.6961,2.4032 1.1721 3.6232c 0.4700,1.3193 1.0233,2.6603 1.6549 4.0249c 0.6254,1.4669 1.3291,2.9584 2.1065 4.4715c 0.7717,1.6091 1.6174,3.2338 2.5330 4.8657c 0.9108,1.7120 1.8923,3.4183 2.9404 5.1061c 1.0448,1.7435 2.1574,3.4503 3.3340 5.1042c 2.3493,3.3735 4.9625,6.4069 7.8100 8.9652c 1.4268,1.2276 2.9139,2.3075 4.4574 3.2265c 1.5473,0.8559 3.1518,1.5374 4.8092 2.0351c 1.6623,0.4173 3.3781,0.6441 5.1428 0.6759c 1.7700,-0.0569 3.5891,-0.3088 5.4523 -0.7553c 1.8685,-0.5348 3.7809,-1.2583 5.7322 -2.1658c 1.9561,-0.9884 3.9505,-2.1505 5.9779 -3.4786Z"/></g><g stroke-linejoin="miter" stroke-opacity="1.0" fill-opacity="1.0" stroke="rgb(31,59,77)" stroke-width="10.0" fill="rgb(55,120,191)" stroke-linecap="butt" stroke-miterlimit="10.0"><path d="M 5.0080,122.8024 c -1.3357,0.9857 -2.4072,2.0232 -3.2299 3.1054c -0.7571,1.0990 -1.2789,2.2391 -1.5826 3.4129c -0.4474,2.3885 -0.1142,4.8879 0.8686 7.4390c 2.2719,5.1805 6.5791,10.4239 12.2753 15.3587c 5.6962,4.9348 12.7813,9.5611 21.2267 13.6655c 4.3759,2.0913 9.2325,4.0881 14.6166 5.9765c 2.7721,0.9647 5.6990,1.9081 8.7873 2.8288c 3.1540,0.9375 6.4828,1.8556 9.9916 2.7525c 3.5819,0.9156 7.2645,1.7897 11.0368 2.6227c 3.8366,0.8494 7.7561,1.6561 11.7414 2.4187c 8.0953,1.5571 16.3556,2.9132 24.5812 4.0431c 4.0848,0.5577 8.1202,1.0485 12.0774 1.4682c 3.8916,0.4029 7.6754,0.7271 11.3231 0.9685c 3.5406,0.2141 6.9178,0.3385 10.1070 0.3702c 3.0470,-0.0047 5.8852,-0.1074 8.4959 -0.3098c 2.4448,-0.2448 4.6508,-0.5920 6.6071 -1.0414c 1.7811,-0.4941 3.3124,-1.0904 4.5909 -1.7863c 1.1094,-0.7391 1.9767,-1.5752 2.6065 -2.5037c 0.4805,-0.9667 0.7428,-2.0210 0.7972 -3.1571c -0.0649,-1.1665 -0.3130,-2.4085 -0.7308 -3.7192c -0.5018,-1.3322 -1.1470,-2.7264 -1.9214 -4.1757c -1.6845,-2.9334 -3.7445,-6.0514 -6.0951 -9.3065c -2.3213,-3.2476 -4.7247,-6.4534 -7.1659 -9.5802c -2.3438,-3.1019 -4.7451,-6.1300 -7.2024 -9.0580c -4.7117,-5.8042 -9.9728,-11.2913 -15.6689 -16.2262c -5.6962,-4.9348 -11.8275,-9.3174 -17.8331 -12.7980c -2.9014,-1.7144 -5.6899,-3.1825 -8.2828 -4.3575c -2.4956,-1.1501 -4.7758,-2.0019 -6.8005 -2.5194c -1.9955,-0.5101 -3.7383,-0.6866 -5.3133 -0.5771c -0.8553,0.0374 -1.7041,0.1374 -2.5604 0.2929c -0.9403,0.1341 -1.9146,0.3171 -2.9362 0.5423c -1.1409,0.1948 -2.3539,0.4254 -3.6493 0.6862c -1.4447,0.2226 -2.9910,0.4703 -4.6437 0.7388c -1.8218,0.2253 -3.7604,0.4685 -5.8132 0.7274c -2.2279,0.2140 -4.5698,0.4437 -7.0146 0.6884c -2.6107,0.2024 -5.3131,0.4228 -8.0885 0.6628c -2.9175,0.2037 -5.8873,0.4322 -8.8846 0.6888c -3.1044,0.2292 -6.2091,0.4933 -9.2859 0.7964c -3.1423,0.2863 -6.2271,0.6192 -9.2254 1.0027c -6.0526,0.7527 -11.5966,1.7498 -16.4324 3.0166c -2.3555,0.6493 -4.5095,1.3723 -6.4447 2.1701c -1.8709,0.8143 -3.5164,1.7051 -4.9252 2.6721Z"/></g><g stroke-linejoin="miter" stroke-opacity="1.0" fill-opacity="1.0" stroke="rgb(31,59,77)" stroke-width="10.0" fill="rgb(55,120,191)" stroke-linecap="butt" stroke-miterlimit="10.0"><path d="M 185.9810,55.3549 c -3.1510,-11.5541 -7.1039,-20.5428 -11.5765 -26.8573c -4.5202,-6.2133 -9.5035,-9.8722 -14.6028 -11.0050c -5.0992,-1.1329 -10.3143,0.2603 -15.3883 4.3422c -5.1216,4.1831 -10.1584,11.1746 -14.7886 21.0000c -1.1469,2.4336 -2.2308,4.9649 -3.2478 7.5741c -1.0027,2.5788 -1.9320,5.2218 -2.7833 7.9081c -0.8276,2.6362 -1.5700,5.3003 -2.2225 7.9716c -0.6193,2.6009 -1.1418,5.1940 -1.5635 7.7602c -0.3801,2.4778 -0.6536,4.9163 -0.8182 7.2992c -0.1170,2.2821 -0.1215,4.5011 -0.0132 6.6452c 0.1582,2.0384 0.4298,4.0007 0.8131 5.8797c 0.4309,1.7778 0.9708,3.4780 1.6154 5.0986c 0.6859,1.5329 1.4710,2.9979 2.3490 4.3970c 0.9093,1.3327 1.9039,2.6159 2.9764 3.8543c 2.1976,2.3649 4.6537,4.6628 7.3070 6.9350c 1.3194,1.1516 2.6767,2.3209 4.0658 3.5099c 1.3731,1.2230 2.7728,2.4766 4.1946 3.7595c 1.3991,1.3311 2.8176,2.6970 4.2530 4.0923c 1.4093,1.4507 2.8352,2.9308 4.2770 4.4314c 1.4154,1.5565 2.8162,3.0902 4.2018 4.5910c 1.3637,1.5474 2.7176,3.0505 4.0612 4.4993c 2.6369,3.0044 5.2644,5.7244 7.8728 8.0920c 5.1277,4.9242 10.3485,8.0792 15.4477 9.2120c 5.0992,1.1329 10.0769,0.2436 14.5433 -2.5492c 2.1887,-1.3019 4.2072,-2.9897 5.9896 -5.0123c 0.8661,-0.9579 1.6652,-1.9827 2.3885 -3.0665c 0.7013,-1.0372 1.3214,-2.1219 1.8512 -3.2463c 0.5035,-1.0684 0.9012,-2.1435 1.1941 -3.2160c 0.2668,-1.0171 0.4288,-2.0319 0.4887 -3.0389c 0.0372,-0.9588 -0.0252,-1.9153 -0.1825 -2.8682c -0.1733,-0.9189 -0.4364,-1.8451 -0.7831 -2.7806c -0.7080,-1.8401 -1.7051,-3.8139 -2.9301 -5.9627c -0.5861,-1.1304 -1.2160,-2.3325 -1.8821 -3.6112c -0.6349,-1.3451 -1.2983,-2.7831 -1.9843 -4.3159c -0.6446,-1.6205 -1.3061,-3.3477 -1.9802 -5.1796c -0.6264,-1.9331 -1.2628,-3.9763 -1.9073 -6.1228c -0.5947,-2.2521 -1.1981,-4.6062 -1.8105 -7.0504c -0.5649,-2.5450 -1.1425,-5.1726 -1.7350 -7.8665c -0.5510,-2.7822 -1.1227,-5.6184 -1.7192 -8.4894c -0.5633,-2.9414 -1.1583,-5.9027 -1.7896 -8.8630c -0.6077,-3.0104 -1.2590,-6.0045 -1.9584 -8.9615c -0.6851,-2.9873 -1.4248,-5.9237 -2.2233 -8.7895Z"/></g><g stroke-linejoin="miter" stroke-opacity="1.0" fill-opacity="1.0" stroke="rgb(31,59,77)" stroke-width="10.0" fill="rgb(55,120,191)" stroke-linecap="butt" stroke-miterlimit="10.0"><path d="M 250.9683,136.4281 c 1.9928,-0.7535 3.9649,-1.5458 5.9119 -2.3827c 1.9442,-0.7911 3.8644,-1.6434 5.7559 -2.5601c 3.7778,-1.7456 7.4454,-3.8213 10.9649 -6.2218c 7.0320,-4.6878 13.4863,-10.9281 19.0395 -18.3762c 5.5533,-7.4481 10.2055,-16.1040 13.6219 -25.4297c 1.7048,-4.6062 3.0968,-9.3166 4.1318 -14.0261c 0.5149,-2.3108 0.9395,-4.6033 1.2680 -6.8605c 0.3257,-2.2113 0.5544,-4.3708 0.6801 -6.4586c 0.1217,-2.0220 0.1366,-3.9072 0.0485 -5.6439c -0.0929,-1.6567 -0.2893,-3.1530 -0.5852 -4.4801c -0.3013,-1.2367 -0.7025,-2.2960 -1.1992 -3.1728c -0.5024,-0.7826 -1.1003,-1.3803 -1.7893 -1.7925c -0.6943,-0.3227 -1.4793,-0.4642 -2.3499 -0.4293c -0.8752,0.1106 -1.8354,0.3865 -2.8752 0.8185c -2.0888,1.0135 -4.4900,2.5450 -7.1592 4.4846c -1.3342,0.9625 -2.7333,1.9944 -4.1920 3.0816c -1.4562,1.0471 -2.9708,2.1299 -4.5381 3.2367c -1.5633,1.0396 -3.1786,2.0883 -4.8406 3.1384c -1.6568,0.9634 -3.3599,1.9197 -5.1043 2.8661c -1.7386,0.8496 -3.5185,1.6878 -5.3350 2.5171c -1.8107,0.7316 -3.6583,1.4593 -5.5387 2.1902c -1.8749,0.6403 -3.7831,1.2939 -5.7205 1.9713c -1.9327,0.5997 -3.8954,1.2364 -5.8842 1.9228c -1.9850,0.6247 -3.9501,1.3004 -5.8908 2.0328c -1.9382,0.6910 -3.8530,1.4546 -5.7399 2.2934c -3.7691,1.6020 -7.4304,3.5711 -10.9452 5.8958c -7.0244,4.5622 -13.4757,10.7534 -19.0290 18.2015c -5.5533,7.4481 -10.2085,16.1531 -13.6324 25.6044c -1.7093,4.6821 -3.1077,9.4990 -4.1515 14.3521c -0.5196,2.3888 -0.9495,4.7699 -1.2840 7.1271c -0.3320,2.3159 -0.5677,4.5918 -0.7012 6.8085c -0.1297,2.1550 -0.1531,4.1821 -0.0741 6.0685c 0.0837,1.8088 0.2706,3.4638 0.5567 4.9545c 0.2915,1.4001 0.6827,2.6258 1.1693 3.6701c 0.4925,0.9465 1.0807,1.7066 1.7600 2.2777c 0.6852,0.4742 1.4614,0.7611 2.3238 0.8631c 0.8676,0.0154 1.8208,-0.1453 2.8545 -0.4746c 1.0377,-0.3965 2.1550,-0.9465 3.3465 -1.6385c 1.1938,-0.7321 2.4606,-1.5864 3.7948 -2.5489c 2.6692,-1.9396 5.6000,-4.1815 8.7480 -6.6157c 1.5695,-1.1423 3.1917,-2.3062 4.8613 -3.4822c 1.6651,-1.1005 3.3769,-2.2020 5.1304 -3.3000c 1.7482,-1.0085 3.5378,-2.0091 5.3642 -3.0023c 1.8207,-0.8991 3.6784,-1.7931 5.5686 -2.6875c 1.8847,-0.8040 3.8025,-1.6162 5.7490 -2.4457c 1.9417,-0.7495 3.9130,-1.5280 5.9098 -2.3474Z"/></g><g stroke-linejoin="miter" stroke-opacity="1.0" fill-opacity="1.0" stroke="rgb(31,59,77)" stroke-width="10.0" fill="rgb(55,120,191)" stroke-linecap="butt" stroke-miterlimit="10.0"><path d="M 213.7440,176.1587 c 0.5342,1.4637 1.0664,2.9111 1.6039 4.3410c 0.4663,1.4117 0.9539,2.8099 1.4711 4.1935c 0.8662,2.7242 1.9517,5.4160 3.3079 8.0625c 2.4032,5.2141 6.4676,10.3954 12.1638 15.3302c 5.6962,4.9348 13.0241,9.6232 21.3382 13.6940c 4.0024,1.9959 8.1068,3.8004 12.1773 5.3530c 1.9512,0.7548 3.8686,1.4402 5.7336 2.0482c 1.7938,0.5898 3.5190,1.0980 5.1578 1.5169c 1.5562,0.3978 2.9800,0.6945 4.2663 0.8920c 1.2086,0.1777 2.2831,0.2571 3.2247 0.2417c 1.7062,-0.0760 2.9611,-0.5106 3.8417 -1.2583c 0.8846,-0.7466 1.6077,-1.7520 2.2934 -2.9586c 0.4666,-0.5717 0.9678,-1.1824 1.5166 -1.8256c 0.6749,-0.6110 1.4212,-1.2485 2.2469 -1.9071c 0.9811,-0.6189 2.0568,-1.2551 3.2276 -1.9053c 1.3421,-0.6064 2.7840,-1.2255 4.3180 -1.8560c 1.7059,-0.5867 3.4976,-1.1864 5.3598 -1.7999c 2.0201,-0.5732 4.0947,-1.1642 6.2021 -1.7755c 2.2399,-0.5774 4.4901,-1.1807 6.7247 -1.8135c 2.3346,-0.6071 4.6281,-1.2502 6.8530 -1.9328c 4.6371,-1.3175 8.8545,-2.8309 12.4496 -4.5662c 3.6242,-1.7278 6.3342,-3.6265 8.1504 -5.6651c 1.7495,-2.0556 2.6021,-4.2519 2.6277 -6.5453c -0.1167,-4.6296 -3.2873,-9.5824 -8.9835 -14.5173c -5.6962,-4.9348 -13.9179,-9.8517 -24.5185 -14.5069c -5.3842,-2.3491 -11.4267,-4.6490 -18.1129 -6.8702c -6.7529,-2.2383 -14.1465,-4.3972 -22.1167 -6.4345c -7.9411,-2.0299 -15.9613,-3.8110 -23.8579 -5.3174c -3.8547,-0.7293 -7.6421,-1.3805 -11.3349 -1.9500c -3.5927,-0.5439 -7.0652,-0.9995 -10.3916 -1.3634c -3.1939,-0.3300 -6.2192,-0.5626 -9.0542 -0.6954c -2.6771,-0.0924 -5.1478,-0.0810 -7.3970 0.0350c -2.0773,0.1599 -3.9267,0.4261 -5.5404 0.7971c -1.4425,0.4148 -2.6540,0.9334 -3.6351 1.5523c -0.8256,0.6587 -1.4362,1.4138 -1.8394 2.2601c -0.2771,0.8786 -0.3709,1.8423 -0.2942 2.8846c 0.4008,2.1479 1.3075,4.5652 2.5959 7.1944c 1.2924,2.6303 2.7538,5.4180 4.3071 8.3179c 0.6882,1.4273 1.3792,2.8775 2.0721 4.3471c 0.6151,1.4497 1.2285,2.9179 1.8453 4.4027Z"/></g><g stroke-linejoin="miter" stroke-opacity="1.0" fill-opacity="1.0" stroke="rgb(0,0,0)" stroke-width="0.0" fill="rgb(55,120,191)" stroke-linecap="butt" stroke-miterlimit="10.0"><path d="M 224.3393,194.1776 c -5.4794,-3.5731 -10.9293,-6.4890 -16.0498 -8.7943c -5.0941,-2.3614 -9.8777,-4.0718 -14.1270 -5.0158c -4.2494,-0.9440 -7.9644,-1.1217 -10.8655 -0.5366c -2.8746,0.5291 -4.9162,1.7807 -5.9211 3.9132c -0.2688,0.5704 -0.4768,1.2042 -0.6295 1.9042c -0.1682,0.7329 -0.2868,1.5436 -0.3615 2.4354c -0.0978,0.9408 -0.1577,1.9751 -0.1851 3.1056c -0.0579,1.1952 -0.0889,2.4980 -0.0977 3.9093c -0.0453,1.4888 -0.0724,3.0948 -0.0848 4.8158c -0.0525,1.8062 -0.0922,3.7317 -0.1207 5.7705c -0.0690,2.1248 -0.1261,4.3617 -0.1711 6.7007c -0.0822,2.4179 -0.1489,4.9312 -0.1981 7.5259c -0.0796,2.6593 -0.1362,5.3883 -0.1660 8.1703c -0.0509,2.8266 -0.0682,5.6913 -0.0473 8.5755c 0.0147,5.8256 0.2266,11.6342 0.6692 17.2804c 0.2354,2.7934 0.5372,5.5275 0.9081 8.1877c 0.3888,2.6223 0.8502,5.1630 1.3855 7.6104c 0.5577,2.3998 1.1907,4.7034 1.8984 6.9026c 0.7319,2.1478 1.5378,4.1928 2.4159 6.1296c 0.9015,1.8871 1.8505,3.6284 2.8393 5.2311c 1.0077,1.5626 2.0501,2.9973 3.1196 4.3112c 2.1812,2.5382 4.4429,4.6517 6.7301 6.3839c 4.6463,3.3116 9.2548,5.3934 13.5042 6.3375c 4.2494,0.9440 8.1395,0.7503 11.4883 -0.7851c 1.7104,-0.8441 3.3203,-2.0975 4.8219 -3.8175c 0.7719,-0.9048 1.5237,-1.9409 2.2551 -3.1171c 0.7503,-1.2164 1.4853,-2.5835 2.2049 -4.1105c 0.7430,-1.5767 1.4569,-3.2840 2.1434 -5.1167c 0.7107,-1.8840 1.3949,-3.8951 2.0530 -6.0247c 0.6805,-2.1773 1.3335,-4.4704 1.9579 -6.8676c 0.6422,-2.4350 1.2523,-4.9666 1.8275 -7.5799c 1.1784,-5.2860 2.1824,-10.8245 2.9782 -16.4701c 0.3844,-2.7941 0.7056,-5.5913 0.9591 -8.3729c 0.2325,-2.7369 0.3904,-5.4435 0.4700 -8.1028c 0.0492,-2.5947 0.0146,-5.1304 -0.1058 -7.5934c -0.1576,-2.3841 -0.4044,-4.6885 -0.7407 -6.9033c -0.3768,-2.1289 -0.8437,-4.1669 -1.3991 -6.1082c -0.5955,-1.8561 -1.2776,-3.6196 -2.0429 -5.2885c -0.8018,-1.5914 -1.6827,-3.0968 -2.6379 -4.5170c -0.9857,-1.3556 -2.0404,-2.6375 -3.1584 -3.8484c -1.1411,-1.1619 -2.3397,-2.2653 -3.5898 -3.3133c -1.2657,-1.0151 -2.5775,-1.9866 -3.9298 -2.9171Z"/></g><g stroke-linejoin="miter" stroke-opacity="1.0" fill-opacity="1.0" stroke="rgb(0,0,0)" stroke-width="0.0" fill="rgb(55,120,191)" stroke-linecap="butt" stroke-miterlimit="10.0"><path d="M 133.1424,273.5492 c 1.6929,-1.1640 3.3726,-2.4263 5.0340 -3.7703c 1.6639,-1.3851 3.3087,-2.8381 4.9297 -4.3442c 3.2469,-3.0941 6.3943,-6.3371 9.4054 -9.6366c 6.0290,-6.7135 11.4975,-13.4083 16.1252 -19.6151c 4.6277,-6.2068 8.4146,-11.9254 11.0926 -16.8899c 1.3424,-2.5395 2.4113,-4.9515 3.1752 -7.2366c 0.3844,-1.1835 0.6935,-2.3512 0.9235 -3.5062c 0.2325,-1.1962 0.3868,-2.3936 0.4593 -3.5974c 0.0759,-1.2610 0.0690,-2.5124 -0.0163 -3.7606c -0.0813,-1.3156 -0.2406,-2.6365 -0.4736 -3.9667c -0.2286,-1.4038 -0.5308,-2.8217 -0.9024 -4.2542c -0.3672,-1.5064 -0.8039,-3.0272 -1.3065 -4.5589c -0.4985,-1.5987 -1.0632,-3.2025 -1.6906 -4.8037c -0.6242,-1.6537 -1.3118,-3.2936 -2.0595 -4.9086c -1.4902,-3.3158 -3.2265,-6.4356 -5.1843 -9.2469c -0.9805,-1.3783 -2.0180,-2.6526 -3.1094 -3.8096c -1.0941,-1.1105 -2.2430,-2.0885 -3.4434 -2.9232c -1.2044,-0.7679 -2.4609,-1.3819 -3.7659 -1.8349c -1.3099,-0.3730 -2.6687,-0.5801 -4.0726 -0.6185c -1.4090,0.0467 -2.8631,0.2611 -4.3582 0.6416c -1.5001,0.4632 -3.0408,1.0863 -4.6179 1.8642c -1.5816,0.8520 -3.1990,1.8489 -4.8478 2.9829c -1.6525,1.1954 -3.3357,2.5162 -5.0450 3.9533c -1.7122,1.4840 -3.4093,3.0357 -5.0863 4.6393c -1.6789,1.6337 -3.3370,3.3068 -4.9696 5.0064c -3.2683,3.4509 -6.4317,6.9583 -9.4541 10.4463c -6.0478,7.0253 -11.5236,13.8421 -16.1514 20.0489c -4.6277,6.2068 -8.4073,11.8035 -11.0665 16.4561c -1.3311,2.3510 -2.3841,4.4986 -3.1264 6.4270c -0.3727,0.9900 -0.6686,1.9375 -0.8837 2.8440c -0.2169,0.9366 -0.3538,1.8447 -0.4070 2.7284c -0.0560,0.9307 -0.0279,1.8297 0.0798 2.7061c 0.1041,0.9377 0.2870,1.8647 0.5446 2.7886c 0.2531,0.9980 0.5801,2.0027 0.9767 3.0194c 0.3917,1.0994 0.8527,2.2169 1.3790 3.3541c 0.5212,1.2224 1.1076,2.4654 1.7555 3.7263c 0.6430,1.3409 1.3478,2.6948 2.1109 4.0547c 0.7590,1.4266 1.5769,2.8486 2.4503 4.2551c 0.8707,1.4529 1.7978,2.8752 2.7784 4.2535c 1.9578,2.8112 4.1355,5.3391 6.5083 7.4710c 1.1890,1.0230 2.4283,1.9229 3.7145 2.6887c 1.2894,0.7133 2.6265,1.2811 4.0077 1.6959c 1.3853,0.3478 2.8151,0.5367 4.2856 0.5633c 1.4750,-0.0474 2.9909,-0.2574 4.5436 -0.6294c 1.5571,-0.4457 3.1508,-1.0486 4.7768 -1.8048c 1.6301,-0.8236 3.2921,-1.7921 4.9816 -2.8989Z"/></g><g stroke-linejoin="miter" stroke-opacity="1.0" fill-opacity="1.0" stroke="rgb(0,0,0)" stroke-width="0.0" fill="rgb(55,120,191)" stroke-linecap="butt" stroke-miterlimit="10.0"><path d="M 35.2590,130.5350 c -1.1131,0.8214 -2.0060,1.6860 -2.6916 2.5878c -0.6309,0.9158 -1.0657,1.8660 -1.3189 2.8441c -0.3728,1.9904 -0.0951,4.0732 0.7238 6.1992c 1.8932,4.3171 5.4826,8.6866 10.2294 12.7989c 4.7468,4.1124 10.6511,7.9676 17.6889 11.3879c 3.6466,1.7428 7.6938,3.4068 12.1805 4.9804c 2.3101,0.8039 4.7491,1.5901 7.3227 2.3573c 2.6283,0.7812 5.4024,1.5463 8.3263 2.2938c 2.9849,0.7630 6.0538,1.4914 9.1973 2.1856c 3.1972,0.7079 6.4635,1.3800 9.7845 2.0156c 6.7461,1.2976 13.6296,2.4277 20.4843 3.3692c 3.4040,0.4648 6.7669,0.8738 10.0645 1.2235c 3.2430,0.3357 6.3962,0.6059 9.4359 0.8071c 2.9505,0.1784 5.7648,0.2821 8.4225 0.3085c 2.5392,-0.0039 4.9043,-0.0895 7.0799 -0.2581c 2.0373,-0.2040 3.8757,-0.4934 5.5059 -0.8678c 1.4843,-0.4118 2.7603,-0.9087 3.8257 -1.4886c 0.9245,-0.6159 1.6472,-1.3126 2.1720 -2.0864c 0.4004,-0.8056 0.6190,-1.6842 0.6643 -2.6309c -0.0541,-0.9721 -0.2608,-2.0071 -0.6090 -3.0993c -0.4182,-1.1101 -0.9558,-2.2720 -1.6012 -3.4798c -1.4038,-2.4445 -3.1205,-5.0428 -5.0792 -7.7554c -1.9345,-2.7063 -3.9373,-5.3778 -5.9716 -7.9835c -1.9531,-2.5849 -3.9543,-5.1083 -6.0020 -7.5483c -3.9265,-4.8368 -8.3106,-9.4095 -13.0575 -13.5218c -4.7468,-4.1124 -9.8563,-7.7645 -14.8609 -10.6650c -2.4178,-1.4287 -4.7416,-2.6521 -6.9024 -3.6313c -2.0796,-0.9584 -3.9798,-1.6682 -5.6671 -2.0995c -1.6629,-0.4251 -3.1153,-0.5722 -4.4278 -0.4809c -0.7127,0.0312 -1.4201,0.1145 -2.1337 0.2441c -0.7836,0.1117 -1.5955,0.2642 -2.4468 0.4519c -0.9507,0.1623 -1.9616,0.3545 -3.0411 0.5718c -1.2039,0.1855 -2.4925,0.3919 -3.8697 0.6157c -1.5181,0.1877 -3.1337,0.3905 -4.8443 0.6061c -1.8566,0.1784 -3.8082,0.3697 -5.8455 0.5737c -2.1756,0.1686 -4.4276,0.3523 -6.7404 0.5523c -2.4313,0.1697 -4.9061,0.3602 -7.4039 0.5740c -2.5870,0.1910 -5.1743,0.4111 -7.7382 0.6636c -2.6186,0.2386 -5.1892,0.5160 -7.6878 0.8356c -5.0439,0.6273 -9.6639,1.4582 -13.6937 2.5138c -1.9630,0.5411 -3.7579,1.1436 -5.3706 1.8084c -1.5591,0.6786 -2.9303,1.4209 -4.1043 2.2267Z"/></g><g stroke-linejoin="miter" stroke-opacity="1.0" fill-opacity="1.0" stroke="rgb(0,0,0)" stroke-width="0.0" fill="rgb(55,120,191)" stroke-linecap="butt" stroke-miterlimit="10.0"><path d="M 186.0697,74.3288 c -2.6258,-9.6284 -5.9199,-17.1190 -9.6470 -22.3811c -3.7668,-5.1778 -7.9196,-8.2268 -12.1690 -9.1708c -4.2494,-0.9440 -8.5953,0.2169 -12.8235 3.6185c -4.2680,3.4859 -8.4654,9.3122 -12.3239 17.5000c -0.9557,2.0280 -1.8590,4.1374 -2.7065 6.3117c -0.8356,2.1490 -1.6100,4.3515 -2.3194 6.5901c -0.6897,2.1968 -1.3083,4.4169 -1.8521 6.6430c -0.5161,2.1674 -0.9515,4.3284 -1.3029 6.4668c -0.3167,2.0648 -0.5447,4.0969 -0.6818 6.0827c -0.0975,1.9017 -0.1013,3.7509 -0.0110 5.5377c 0.1318,1.6987 0.3582,3.3339 0.6776 4.8998c 0.3591,1.4815 0.8090,2.8984 1.3462 4.2488c 0.5716,1.2774 1.2258,2.4982 1.9575 3.6641c 0.7578,1.1106 1.5866,2.1799 2.4803 3.2119c 1.8313,1.9707 3.8781,3.8857 6.0892 5.7792c 1.0995,0.9597 2.2306,1.9341 3.3882 2.9249c 1.1443,1.0191 2.3107,2.0638 3.4955 3.1329c 1.1659,1.1093 2.3480,2.2475 3.5441 3.4102c 1.1744,1.2089 2.3627,2.4424 3.5642 3.6929c 1.1795,1.2971 2.3469,2.5751 3.5015 3.8259c 1.1364,1.2895 2.2646,2.5421 3.3843 3.7494c 2.1974,2.5037 4.3870,4.7703 6.5607 6.7433c 4.2731,4.1035 8.6237,6.7327 12.8731 7.6767c 4.2494,0.9440 8.3974,0.2030 12.1194 -2.1243c 1.8239,-1.0849 3.5060,-2.4914 4.9914 -4.1769c 0.7217,-0.7983 1.3877,-1.6523 1.9904 -2.5554c 0.5844,-0.8644 1.1012,-1.7683 1.5427 -2.7052c 0.4196,-0.8904 0.7510,-1.7862 0.9951 -2.6800c 0.2223,-0.8476 0.3573,-1.6932 0.4072 -2.5324c 0.0310,-0.7990 -0.0210,-1.5961 -0.1521 -2.3901c -0.1444,-0.7658 -0.3637,-1.5376 -0.6526 -2.3172c -0.5900,-1.5334 -1.4209,-3.1782 -2.4417 -4.9689c -0.4884,-0.9420 -1.0133,-1.9438 -1.5684 -3.0093c -0.5291,-1.1209 -1.0820,-2.3192 -1.6535 -3.5966c -0.5372,-1.3504 -1.0884,-2.7898 -1.6502 -4.3163c -0.5220,-1.6109 -1.0523,-3.3136 -1.5894 -5.1024c -0.4956,-1.8768 -0.9984,-3.8385 -1.5088 -5.8753c -0.4708,-2.1209 -0.9520,-4.3105 -1.4459 -6.5554c -0.4591,-2.3185 -0.9356,-4.6820 -1.4327 -7.0745c -0.4694,-2.4512 -0.9652,-4.9189 -1.4914 -7.3858c -0.5064,-2.5087 -1.0491,-5.0038 -1.6320 -7.4679c -0.5709,-2.4894 -1.1874,-4.9364 -1.8527 -7.3246Z"/></g><g stroke-linejoin="miter" stroke-opacity="1.0" fill-opacity="1.0" stroke="rgb(0,0,0)" stroke-width="0.0" fill="rgb(55,120,191)" stroke-linecap="butt" stroke-miterlimit="10.0"><path d="M 240.2258,141.8897 c 1.6607,-0.6279 3.3041,-1.2881 4.9266 -1.9856c 1.6202,-0.6593 3.2203,-1.3695 4.7966 -2.1334c 3.1482,-1.4547 6.2045,-3.1844 9.1374 -5.1849c 5.8600,-3.9065 11.2385,-9.1067 15.8663 -15.3135c 4.6277,-6.2068 8.5046,-13.4200 11.3516 -21.1914c 1.4206,-3.8385 2.5806,-7.7639 3.4432 -11.6884c 0.4291,-1.9257 0.7829,-3.8361 1.0566 -5.7171c 0.2715,-1.8428 0.4620,-3.6423 0.5668 -5.3821c 0.1014,-1.6850 0.1138,-3.2560 0.0404 -4.7033c -0.0774,-1.3805 -0.2411,-2.6275 -0.4877 -3.7334c -0.2511,-1.0306 -0.5854,-1.9134 -0.9993 -2.6440c -0.4186,-0.6522 -0.9170,-1.1502 -1.4910 -1.4937c -0.5786,-0.2689 -1.2327,-0.3869 -1.9583 -0.3577c -0.7293,0.0921 -1.5295,0.3221 -2.3960 0.6821c -1.7406,0.8446 -3.7416,2.1208 -5.9660 3.7372c -1.1118,0.8021 -2.2778,1.6620 -3.4933 2.5680c -1.2135,0.8726 -2.4756,1.7749 -3.7818 2.6973c -1.3028,0.8664 -2.6488,1.7402 -4.0339 2.6153c -1.3807,0.8029 -2.7999,1.5997 -4.2536 2.3884c -1.4488,0.7080 -2.9320,1.4065 -4.4458 2.0976c -1.5089,0.6097 -3.0486,1.2161 -4.6156 1.8252c -1.5624,0.5336 -3.1526,1.0783 -4.7671 1.6427c -1.6106,0.4998 -3.2462,1.0304 -4.9035 1.6023c -1.6542,0.5205 -3.2918,1.0837 -4.9090 1.6940c -1.6152,0.5758 -3.2109,1.2122 -4.7832 1.9112c -3.1409,1.3350 -6.1920,2.9759 -9.1210 4.9132c -5.8537,3.8018 -11.2298,8.9612 -15.8575 15.1679c -4.6277,6.2068 -8.5070,13.4609 -11.3603 21.3370c -1.4244,3.9017 -2.5898,7.9158 -3.4596 11.9601c -0.4330,1.9906 -0.7912,3.9749 -1.0700 5.9393c -0.2767,1.9299 -0.4731,3.8265 -0.5843 5.6738c -0.1081,1.7958 -0.1276,3.4851 -0.0617 5.0571c 0.0698,1.5073 0.2255,2.8865 0.4639 4.1288c 0.2429,1.1668 0.5689,2.1882 0.9744 3.0584c 0.4104,0.7888 0.9006,1.4221 1.4667 1.8980c 0.5710,0.3952 1.2178,0.6342 1.9365 0.7193c 0.7230,0.0128 1.5174,-0.1211 2.3788 -0.3955c 0.8648,-0.3304 1.7959,-0.7888 2.7887 -1.3654c 0.9949,-0.6101 2.0505,-1.3220 3.1623 -2.1241c 2.2243,-1.6164 4.6667,-3.4846 7.2900 -5.5131c 1.3079,-0.9519 2.6598,-1.9218 4.0511 -2.9019c 1.3876,-0.9170 2.8141,-1.8350 4.2754 -2.7500c 1.4568,-0.8404 2.9482,-1.6742 4.4702 -2.5019c 1.5173,-0.7492 3.0654,-1.4943 4.6405 -2.2396c 1.5706,-0.6700 3.1687,-1.3468 4.7909 -2.0381c 1.6181,-0.6245 3.2608,-1.2734 4.9248 -1.9562Z"/></g><g stroke-linejoin="miter" stroke-opacity="1.0" fill-opacity="1.0" stroke="rgb(0,0,0)" stroke-width="0.0" fill="rgb(55,120,191)" stroke-linecap="butt" stroke-miterlimit="10.0"><path d="M 209.2056,174.9986 c 0.4451,1.2197 0.8887,2.4259 1.3366 3.6175c 0.3885,1.1764 0.7949,2.3416 1.2259 3.4946c 0.7218,2.2702 1.6264,4.5133 2.7566 6.7188c 2.0026,4.3451 5.3897,8.6628 10.1365 12.7752c 4.7468,4.1124 10.8534,8.0193 17.7818 11.4117c 3.3353,1.6632 6.7557,3.1670 10.1478 4.4608c 1.6260,0.6290 3.2238,1.2002 4.7780 1.7068c 1.4948,0.4915 2.9325,0.9150 4.2982 1.2641c 1.2968,0.3315 2.4833,0.5787 3.5553 0.7434c 1.0071,0.1481 1.9026,0.2142 2.6872 0.2014c 1.4218,-0.0634 2.4676,-0.4255 3.2014 -1.0486c 0.7372,-0.6222 1.3397,-1.4600 1.9112 -2.4655c 0.3888,-0.4764 0.8065,-0.9853 1.2638 -1.5214c 0.5624,-0.5092 1.1844,-1.0404 1.8724 -1.5893c 0.8176,-0.5158 1.7140,-1.0459 2.6897 -1.5877c 1.1184,-0.5053 2.3200,-1.0212 3.5984 -1.5467c 1.4216,-0.4889 2.9147,-0.9887 4.4665 -1.5000c 1.6834,-0.4777 3.4122,-0.9702 5.1684 -1.4796c 1.8666,-0.4812 3.7417,-0.9840 5.6039 -1.5112c 1.9455,-0.5059 3.8567,-1.0418 5.7109 -1.6107c 3.8643,-1.0979 7.3788,-2.3591 10.3746 -3.8051c 3.0202,-1.4399 5.2785,-3.0221 6.7920 -4.7209c 1.4579,-1.7130 2.1684,-3.5433 2.1897 -5.4544c -0.0972,-3.8580 -2.7395,-7.9854 -7.4863 -12.0977c -4.7468,-4.1124 -11.5982,-8.2097 -20.4321 -12.0891c -4.4869,-1.9576 -9.5223,-3.8741 -15.0941 -5.7252c -5.6274,-1.8653 -11.7887,-3.6643 -18.4306 -5.3621c -6.6176,-1.6916 -13.3011,-3.1758 -19.8816 -4.4311c -3.2123,-0.6077 -6.3685,-1.1504 -9.4457 -1.6250c -2.9939,-0.4533 -5.8877,-0.8329 -8.6597 -1.1362c -2.6616,-0.2750 -5.1827,-0.4688 -7.5452 -0.5795c -2.2309,-0.0770 -4.2899,-0.0675 -6.1642 0.0292c -1.7311,0.1333 -3.2722,0.3550 -4.6170 0.6642c -1.2020,0.3457 -2.2116,0.7778 -3.0292 1.2936c -0.6880,0.5489 -1.1968,1.1781 -1.5328 1.8834c -0.2309,0.7322 -0.3091,1.5352 -0.2452 2.4038c 0.3340,1.7899 1.0896,3.8043 2.1632 5.9953c 1.0770,2.1919 2.2948,4.5150 3.5893 6.9316c 0.5735,1.1894 1.1494,2.3979 1.7267 3.6226c 0.5125,1.2081 1.0237,2.4316 1.5377 3.6689Z"/></g><g stroke-linejoin="miter" stroke-opacity="1.0" fill-opacity="1.0" stroke="rgb(31,59,77)" stroke-width="10.0" fill="rgb(31,59,77)" stroke-linecap="butt" stroke-miterlimit="10.0"><path d="M 200.8424,186.8063 c -0.4690,-0.8288 -0.9374,-1.6374 -1.4053 -2.4208c -0.4591,-0.8022 -0.9206,-1.5732 -1.3846 -2.3087c -0.9097,-1.5095 -1.8428,-2.8478 -2.7943 -3.9898c -1.8759,-2.3414 -3.8817,-3.7784 -5.9214 -4.2316c -2.0397,-0.4531 -4.1132,0.0776 -6.0750 1.5664c -0.9673,0.7157 -1.8927,1.6412 -2.7507 2.7579c -0.4199,0.5391 -0.8196,1.1188 -1.1952 1.7355c -0.3668,0.5980 -0.7068,1.2270 -1.0159 1.8829c -0.2971,0.6305 -0.5536,1.2672 -0.7687 1.9040c -0.2014,0.6078 -0.3599,1.2126 -0.4753 1.8094c -0.1010,0.5662 -0.1582,1.1232 -0.1722 1.6676c -0.0001,0.5149 0.0426,1.0181 0.1267 1.5082c 0.0960,0.4648 0.2318,0.9198 0.4053 1.3651c 0.1819,0.4275 0.3989,0.8508 0.6482 1.2715c 0.5079,0.8215 1.1242,1.6764 1.8236 2.5830c 0.3399,0.4742 0.6952,0.9725 1.0631 1.4967c 0.3560,0.5496 0.7218,1.1308 1.0952 1.7440c 0.3578,0.6463 0.7216,1.3283 1.0898 2.0443c 0.3506,0.7535 0.7052,1.5422 1.0634 2.3627c 0.3402,0.8587 0.6846,1.7477 1.0336 2.6617c 0.3321,0.9499 0.6706,1.9212 1.0164 2.9074c 0.3312,1.0171 0.6721,2.0442 1.0242 3.0735c 0.3404,1.0540 0.6946,2.1048 1.0643 3.1445c 0.7144,2.1321 1.4732,4.0837 2.2738 5.8248c 0.7895,1.7647 1.6334,3.2922 2.5213 4.5690c 1.7708,2.5645 3.7355,4.0888 5.7752 4.5419c 2.0397,0.4531 4.1543,-0.1648 6.2212 -1.8768c 1.0309,-0.8505 2.0454,-1.9651 3.0236 -3.3371c 0.9671,-1.3483 1.8854,-2.9273 2.7273 -4.7137c 0.4085,-0.8668 0.7837,-1.7555 1.1241 -2.6583c 0.3288,-0.8780 0.6201,-1.7646 0.8725 -2.6521c 0.2378,-0.8565 0.4343,-1.7090 0.5884 -2.5508c 0.1373,-0.8060 0.2306,-1.5977 0.2795 -2.3700c 0.0309,-0.7340 0.0167,-1.4471 -0.0421 -2.1358c -0.0765,-0.6512 -0.1970,-1.2792 -0.3603 -1.8823c -0.1789,-0.5700 -0.3988,-1.1188 -0.6575 -1.6468c -0.2707,-0.5025 -0.5774,-0.9901 -0.9172 -1.4643c -0.6994,-0.9066 -1.5102,-1.8047 -2.4072 -2.7126c -0.4438,-0.4639 -0.9039,-0.9413 -1.3776 -1.4336c -0.4653,-0.5101 -0.9415,-1.0408 -1.4266 -1.5920c -0.4731,-0.5765 -0.9535,-1.1770 -1.4397 -1.7999c -0.4723,-0.6525 -0.9500,-1.3283 -1.4327 -2.0241c -0.4682,-0.7265 -0.9419,-1.4718 -1.4213 -2.2308c -0.4658,-0.7881 -0.9387,-1.5869 -1.4197 -2.3902Z"/></g><g stroke-linejoin="miter" stroke-opacity="1.0" fill-opacity="1.0" stroke="rgb(31,59,77)" stroke-width="10.0" fill="rgb(31,59,77)" stroke-linecap="butt" stroke-miterlimit="10.0"><path d="M 162.0164,209.3959 c 0.8256,-0.7741 1.6415,-1.5406 2.4458 -2.2990c 0.8033,-0.7424 1.5953,-1.4796 2.3739 -2.2115c 1.5548,-1.4233 3.0576,-2.8475 4.4934 -4.2731c 2.8667,-2.7701 5.4740,-5.6917 7.6953 -8.6709c 2.2213,-2.9792 4.0566,-6.0162 5.3693 -8.8515c 0.6539,-1.3771 1.1749,-2.6673 1.5453 -3.8261c 0.1840,-0.5591 0.3299,-1.0799 0.4357 -1.5568c 0.1048,-0.4608 0.1692,-0.8750 0.1910 -1.2375c 0.0208,-0.3456 -0.0015,-0.6307 -0.0649 -0.8569c -0.0642,-0.2126 -0.1695,-0.3689 -0.3136 -0.4717c -0.2894,-0.1866 -0.7325,-0.1903 -1.3120 -0.0492c -0.2887,0.0540 -0.6109,0.1328 -0.9642 0.2309c -0.3519,0.0746 -0.7345,0.1607 -1.1456 0.2534c -0.4091,0.0586 -0.8463,0.1170 -1.3095 0.1715c -0.4606,0.0121 -0.9470,0.0156 -1.4571 0.0086c -0.5072,-0.0542 -1.0380,-0.1207 -1.5906 -0.1994c -0.5497,-0.1265 -1.1211,-0.2639 -1.7126 -0.4098c -0.5888,-0.1903 -1.1980,-0.3850 -1.8258 -0.5799c -0.6255,-0.2323 -1.2701,-0.4587 -1.9322 -0.6733c -0.6604,-0.2429 -1.3386,-0.4669 -2.0333 -0.6656c -0.6936,-0.2168 -1.4040,-0.4011 -2.1298 -0.5468c -1.4502,-0.3135 -2.9639,-0.4354 -4.5284 -0.3266c -1.5659,0.1325 -3.1097,0.5100 -4.6146 1.1054c -1.5070,0.6298 -2.9744,1.4661 -4.3850 2.4726c -2.8249,2.0765 -5.4159,4.7269 -7.6372 7.7062c -2.2213,2.9792 -4.0729,6.2873 -5.4273 9.8162c -0.6791,1.7963 -1.2356,3.6744 -1.6537 5.6266c -0.4202,1.9866 -0.7028,4.0588 -0.8317 6.1993c -0.1303,2.1642 -0.0995,4.2751 0.0796 6.2934c 0.0902,0.9981 0.2181,1.9638 0.3820 2.8909c 0.1651,0.9091 0.3667,1.7723 0.6033 2.5835c 0.2384,0.7829 0.5122,1.5064 0.8200 2.1650c 0.3100,0.6210 0.6543,1.1709 1.0313 1.6454c 0.3797,0.4300 0.7922,0.7805 1.2360 1.0491c 0.4466,0.2207 0.9245,0.3583 1.4317 0.4125c 0.5101,0.0070 1.0494,-0.0675 1.6159 -0.2217c 0.5691,-0.1965 1.1652,-0.4680 1.7861 -0.8108c 0.6230,-0.3768 1.2704,-0.8181 1.9401 -1.3189c 0.6711,-0.5243 1.3640,-1.1003 2.0764 -1.7226c 1.4269,-1.2776 2.9293,-2.6946 4.4897 -4.2128c 0.7797,-0.7496 1.5734,-1.5167 2.3791 -2.2986c 0.8049,-0.7683 1.6216,-1.5486 2.4482 -2.3396Z"/></g><g stroke-linejoin="miter" stroke-opacity="1.0" fill-opacity="1.0" stroke="rgb(31,59,77)" stroke-width="10.0" fill="rgb(31,59,77)" stroke-linecap="butt" stroke-miterlimit="10.0"><path d="M 113.0418,150.4176 c 1.8194,2.5884 3.9319,5.1513 6.1230 7.5513c 2.1475,2.3888 4.4049,4.6228 6.6834 6.5968c 2.2785,1.9739 4.5780,3.6878 6.7174 5.0129c 2.0959,1.3140 4.0002,2.2311 5.6577 2.6547c 0.4433,0.1133 0.8778,0.1975 1.3081 0.2550c 0.4560,0.0640 0.9170,0.1038 1.3884 0.1219c 0.5095,0.0278 1.0391,0.0364 1.5935 0.0284c 0.6047,0.0048 1.2432,-0.0048 1.9190 -0.0266c 0.7360,-0.0064 1.5160,-0.0233 2.3412 -0.0492c 0.8914,-0.0089 1.8312,-0.0259 2.8176 -0.0501c 1.0532,-0.0072 2.1521,-0.0218 3.2916 -0.0439c 1.2009,-0.0064 2.4371,-0.0217 3.7008 -0.0466c 1.3138,-0.0120 2.6460,-0.0360 3.9862 -0.0732c 1.3749,-0.0283 2.7463,-0.0729 4.1024 -0.1353c 2.7569,-0.1135 5.3791,-0.3174 7.7762 -0.6246c 1.1754,-0.1595 2.2801,-0.3486 3.3052 -0.5681c 0.9957,-0.2270 1.9061,-0.4860 2.7247 -0.7774c 0.7816,-0.3008 1.4694,-0.6344 2.0595 -1.0005c 0.5503,-0.3763 1.0042,-0.7849 1.3604 -1.2247c 0.3176,-0.4497 0.5355,-0.9185 0.6620 -1.4032c 0.0954,-0.4926 0.1078,-0.9989 0.0454 -1.5154c -0.1944,-1.0508 -0.6421,-2.1310 -1.2872 -3.2158c -1.4089,-2.2001 -3.3776,-4.3602 -5.6561 -6.3342c -2.2785,-1.9739 -4.8667,-3.7616 -7.7447 -5.2755c -1.4983,-0.7721 -3.1266,-1.4905 -4.9069 -2.1504c -0.9250,-0.3389 -1.8994,-0.6660 -2.9272 -0.9813c -1.0591,-0.3232 -2.1799,-0.6366 -3.3667 -0.9400c -1.2255,-0.3133 -2.4943,-0.6107 -3.8051 -0.8932c -1.3507,-0.2928 -2.7447,-0.5710 -4.1782 -0.8350c -1.4705,-0.2735 -2.9785,-0.5322 -4.5175 -0.7758c -1.5684,-0.2511 -3.1620,-0.4857 -4.7720 -0.7026c -3.2662,-0.4458 -6.5404,-0.8066 -9.7319 -1.0697c -1.5735,-0.1258 -3.1078,-0.2225 -4.5914 -0.2883c -1.4488,-0.0569 -2.8353,-0.0800 -4.1492 -0.0680c -1.2636,0.0249 -2.4456,0.0872 -3.5378 0.1878c -1.0309,0.1163 -1.9668,0.2721 -2.8027 0.4675c -0.7691,0.2125 -1.4373,0.4648 -2.0027 0.7561c -0.4992,0.3082 -0.8989,0.6546 -1.2004 1.0375c -0.2412,0.3983 -0.3908,0.8315 -0.4522 1.2974c -0.0112,0.4787 0.0569,0.9878 0.1993 1.5248c 0.1805,0.5467 0.4257,1.1188 0.7303 1.7137c 0.3302,0.6014 0.7106,1.2232 1.1365 1.8629Z"/></g><g stroke-linejoin="miter" stroke-opacity="1.0" fill-opacity="1.0" stroke="rgb(31,59,77)" stroke-width="10.0" fill="rgb(31,59,77)" stroke-linecap="butt" stroke-miterlimit="10.0"><path d="M 187.8162,112.0400 c -0.5314,-0.6965 -1.0794,-1.3360 -1.6400 -1.9228c -0.5690,-0.5689 -1.1478,-1.0912 -1.7326 -1.5703c -1.1863,-0.9225 -2.3837,-1.7000 -3.5674 -2.3493c -2.3908,-1.2487 -4.6769,-2.0910 -6.7166 -2.5441c -2.0397,-0.4531 -3.8330,-0.5172 -5.2798 -0.1210c -0.7351,0.2230 -1.3962,0.5876 -1.9776 1.1174c -0.2991,0.2827 -0.5815,0.6136 -0.8473 0.9971c -0.2742,0.4014 -0.5345,0.8613 -0.7812 1.3849c -0.2585,0.5485 -0.5002,1.1538 -0.7271 1.8157c -0.2407,0.6912 -0.4684,1.4428 -0.6846 2.2535c -0.2313,0.8427 -0.4520,1.7467 -0.6631 2.7092c -0.2262,0.9947 -0.4426,2.0478 -0.6493 3.1549c -0.2204,1.1362 -0.4299,2.3240 -0.6276 3.5569c -0.2084,1.2558 -0.4028,2.5519 -0.5814 3.8806c -0.3749,2.6948 -0.6673,5.4780 -0.8599 8.2774c -0.0907,1.3878 -0.1509,2.7679 -0.1786 4.1317c -0.0182,1.3436 -0.0008,2.6642 0.0537 3.9542c 0.0682,1.2610 0.1756,2.4867 0.3231 3.6713c 0.1639,1.1498 0.3688,2.2562 0.6146 3.3152c 0.2632,1.0219 0.5672,1.9968 0.9107 2.9225c 0.3605,0.8897 0.7594,1.7328 1.1949 2.5286c 0.4507,0.7636 0.9360,1.4843 1.4536 2.1624c 0.5302,0.6514 1.0902,1.2655 1.6775 1.8432c 0.5970,0.5573 1.2043,1.0709 1.8181 1.5448c 0.6200,0.4608 1.2439,0.8873 1.8683 1.2822c 1.2595,0.7673 2.5110,1.4298 3.7333 1.9971c 2.4548,1.1131 4.7659,1.9023 6.8056 2.3554c 2.0397,0.4531 3.8080,0.5702 5.1908 0.3097c 0.6965,-0.1410 1.3034,-0.3906 1.8116 -0.7652c 0.2594,-0.1985 0.4967,-0.4337 0.7115 -0.7091c 0.2209,-0.2884 0.4219,-0.6225 0.6031 -1.0069c 0.1908,-0.4048 0.3602,-0.8569 0.5109 -1.3570c 0.1633,-0.5269 0.3102,-1.1071 0.4431 -1.7410c 0.1481,-0.6662 0.2841,-1.3904 0.4099 -2.1721c 0.1428,-0.8176 0.2765,-1.6953 0.4024 -2.6308c 0.1433,-0.9726 0.2788,-2.0033 0.4067 -3.0883c 0.1443,-1.1197 0.2800,-2.2915 0.4064 -3.5092c 0.1400,-1.2468 0.2685,-2.5350 0.3840 -3.8569c 0.1250,-1.3422 0.2339,-2.7115 0.3245 -4.0993c 0.1926,-2.7994 0.2905,-5.6258 0.2763 -8.4070c -0.0159,-1.3719 -0.0647,-2.7221 -0.1481 -4.0427c -0.0941,-1.2978 -0.2251,-2.5611 -0.3937 -3.7838c -0.1824,-1.1935 -0.4036,-2.3439 -0.6637 -3.4466c -0.2753,-1.0705 -0.5895,-2.0933 -0.9418 -3.0657c -0.3674,-0.9404 -0.7719,-1.8324 -1.2121 -2.6749c -0.4539,-0.8132 -0.9417,-1.5805 -1.4614 -2.3019Z"/></g><g stroke-linejoin="miter" stroke-opacity="1.0" fill-opacity="1.0" stroke="rgb(31,59,77)" stroke-width="10.0" fill="rgb(31,59,77)" stroke-linecap="butt" stroke-miterlimit="10.0"><path d="M 206.8369,170.7883 c 0.7898,-0.1801 1.5744,-0.4258 2.3514 -0.7315c 0.7781,-0.3236 1.5485,-0.7036 2.3090 -1.1340c 1.5235,-0.9044 3.0057,-1.9852 4.4285 -3.1962c 2.8508,-2.5055 5.4551,-5.3782 7.6764 -8.3575c 2.2213,-2.9792 4.0595,-6.0650 5.3881 -9.1649c 0.6668,-1.5917 1.2085,-3.2253 1.6101 -4.9030c 0.2021,-0.8606 0.3696,-1.7386 0.5006 -2.6342c 0.1320,-0.9136 0.2278,-1.8485 0.2854 -2.8050c 0.0588,-0.9764 0.0781,-1.9527 0.0597 -2.9271c -0.0173,-0.9920 -0.0724,-1.9803 -0.1637 -2.9617c -0.1804,-1.9967 -0.5069,-3.9386 -0.9669 -5.7819c -0.2305,-0.9140 -0.4950,-1.7923 -0.7921 -2.6283c -0.2982,-0.8181 -0.6294,-1.5859 -0.9921 -2.2968c -0.3645,-0.6818 -0.7610,-1.2994 -1.1879 -1.8474c -0.4292,-0.5093 -0.8893,-0.9433 -1.3784 -1.2983c -0.4918,-0.3098 -1.0130,-0.5375 -1.5616 -0.6814c -0.5515,-0.0962 -1.1305,-0.1086 -1.7350 -0.0377c -0.6073,0.1170 -1.2401,0.3143 -1.8962 0.5894c -0.6585,0.3158 -1.3401,0.7041 -2.0426 1.1609c -0.7044,0.4892 -1.4294,1.0401 -2.1726 1.6477c -0.7446,0.6305 -1.5071,1.3104 -2.2852 2.0347c -1.5585,1.4855 -3.1774,3.1097 -4.8394 4.8388c -1.6616,1.7212 -3.2861,3.4389 -4.8570 5.1307c -1.5693,1.6652 -3.0854,3.3098 -4.5325 4.9227c -2.8908,3.1706 -5.5108,6.3033 -7.7321 9.2825c -2.2213,2.9792 -4.0439,5.8050 -5.3324 8.2398c -0.6426,1.1898 -1.1504,2.2596 -1.5062 3.1765c -0.3542,0.8903 -0.5561,1.6221 -0.5894 2.1740c -0.0327,0.5440 0.1032,0.9087 0.3906 1.1280c 0.1426,0.1281 0.3225,0.2296 0.5375 0.3094c 0.2136,0.1028 0.4619,0.1912 0.7426 0.2702c 0.2788,0.1115 0.5896,0.2205 0.9304 0.3309c 0.3383,0.1511 0.7062,0.3089 1.1017 0.4761c 0.3927,0.2133 0.8128,0.4388 1.2584 0.6770c 0.4427,0.2860 0.9108,0.5847 1.4027 0.8945c 0.4891,0.3550 1.0021,0.7180 1.5373 1.0852c 0.5328,0.4060 1.0882,0.8105 1.6646 1.2081c 0.5746,0.4268 1.1706,0.8394 1.7865 1.2313c 0.6149,0.4098 1.2501,0.7908 1.9043 1.1366c 1.3074,0.7068 2.6931,1.2280 4.1446 1.5199c 0.7268,0.1289 1.4704,0.1938 2.2292 0.1914c 0.7599,-0.0200 1.5350,-0.1092 2.3236 -0.2694Z"/></g><g stroke-linejoin="miter" stroke-opacity="1.0" fill-opacity="1.0" stroke="rgb(31,59,77)" stroke-width="10.0" fill="rgb(31,59,77)" stroke-linecap="butt" stroke-miterlimit="10.0"><path d="M 193.9099,171.0888 c -2.8871,1.3854 -4.3302,3.0394 -4.4373 4.8519c -0.0415,1.8293 1.1754,3.7973 3.4539 5.7712c 2.2785,1.9739 5.6185,3.9538 9.9469 5.8384c 4.3940,1.9014 9.8540,3.7274 16.2179 5.3541c 1.5763,0.4029 3.1576,0.7802 4.7339 1.1307c 1.5566,0.3454 3.0994,0.6616 4.6176 0.9473c 1.4857,0.2773 2.9369,0.5215 4.3429 0.7312c 1.3604,0.1980 2.6659,0.3589 3.9068 0.4815c 1.1837,0.1080 2.2949,0.1758 3.3259 0.2025c 0.9656,0.0101 1.8461,-0.0221 2.6366 -0.0964c 0.7220,-0.0918 1.3532,-0.2260 1.8919 -0.4017c 0.4731,-0.1925 0.8571,-0.4256 1.1537 -0.6977c 0.2398,-0.2866 0.3997,-0.6102 0.4838 -0.9684c 0.0411,-0.3693 0.0170,-0.7705 -0.0664 -1.2009c -0.2393,-0.8793 -0.6434,-1.8568 -1.1631 -2.9096c -0.2498,-0.5238 -0.5130,-1.0625 -0.7852 -1.6137c -0.2503,-0.5455 -0.5027,-1.1018 -0.7554 -1.6669c -0.2214,-0.5572 -0.4395,-1.1223 -0.6549 -1.6944c -0.1795,-0.5629 -0.3564,-1.1327 -0.5335 -1.7088c -0.1410,-0.5669 -0.2831,-1.1278 -0.4302 -1.6824c -0.1169,-0.5469 -0.2461,-1.0893 -0.3912 -1.6270c -0.2212,-1.0577 -0.5499,-2.1074 -1.0078 -3.1444c -0.7934,-2.0427 -2.3367,-4.0942 -4.6152 -6.0681c -2.2785,-1.9739 -5.2921,-3.8704 -8.7856 -5.5416c -1.6855,-0.8200 -3.4328,-1.5687 -5.1863 -2.2218c -0.8422,-0.3177 -1.6750,-0.6087 -2.4906 -0.8697c -0.7855,-0.2533 -1.5463,-0.4747 -2.2745 -0.6608c -0.6920,-0.1769 -1.3301,-0.3131 -1.9111 -0.4091c -0.5451,-0.0868 -1.0333,-0.1335 -1.4638 -0.1411c -0.3993,0.0004 -0.7444,0.0389 -1.0374 0.1138c -0.2710,0.0805 -0.4968,0.1956 -0.6815 0.3429c -0.3495,0.2998 -0.5974,0.7125 -0.7926 1.2153c -0.1339,0.2422 -0.2728,0.5022 -0.4225 0.7773c -0.1928,0.2641 -0.4070,0.5407 -0.6468 0.8273c -0.2966,0.2721 -0.6263,0.5523 -0.9907 0.8389c -0.4300,0.2699 -0.8982,0.5452 -1.4029 0.8253c -0.5732,0.2626 -1.1821,0.5300 -1.8217 0.8023c -0.7050,0.2556 -1.4359,0.5173 -2.1850 0.7858c -0.8063,0.2539 -1.6229,0.5166 -2.4400 0.7892c -0.8627,0.2610 -1.7164,0.5345 -2.5502 0.8220c -0.8663,0.2791 -1.7028,0.5747 -2.4989 0.8882c -0.8158,0.3085 -1.5821,0.6371 -2.2892 0.9872Z"/></g><g stroke-linejoin="miter" stroke-opacity="1.0" fill-opacity="1.0" stroke="rgb(0,0,0)" stroke-width="0.0" fill="rgb(31,59,77)" stroke-linecap="butt" stroke-miterlimit="10.0"><path d="M 198.4543,183.8716 c -0.3909,-0.6906 -0.7811,-1.3645 -1.1711 -2.0173c -0.3826,-0.6685 -0.7672,-1.3110 -1.1539 -1.9239c -0.7581,-1.2579 -1.5356,-2.3732 -2.3285 -3.3249c -1.5632,-1.9512 -3.2348,-3.1487 -4.9345 -3.5263c -1.6997,-0.3776 -3.4277,0.0647 -5.0625 1.3054c -0.8061,0.5964 -1.5773,1.3677 -2.2923 2.2983c -0.3499,0.4492 -0.6830,0.9323 -0.9960 1.4463c -0.3057,0.4983 -0.5890,1.0225 -0.8466 1.5691c -0.2476,0.5254 -0.4614,1.0560 -0.6406 1.5867c -0.1678,0.5065 -0.2999,1.0105 -0.3961 1.5078c -0.0841,0.4718 -0.1318,0.9360 -0.1435 1.3897c -0.0001,0.4291 0.0355,0.8484 0.1055 1.2568c 0.0800,0.3873 0.1932,0.7665 0.3378 1.1376c 0.1516,0.3562 0.3324,0.7090 0.5401 1.0596c 0.4232,0.6846 0.9368,1.3970 1.5197 2.1525c 0.2832,0.3951 0.5793,0.8104 0.8859 1.2472c 0.2966,0.4580 0.6015,0.9424 0.9127 1.4534c 0.2982,0.5386 0.6013,1.1069 0.9082 1.7036c 0.2922,0.6279 0.5877,1.2852 0.8862 1.9689c 0.2835,0.7156 0.5705,1.4564 0.8613 2.2181c 0.2768,0.7916 0.5588,1.6010 0.8470 2.4228c 0.2760,0.8476 0.5601,1.7035 0.8535 2.5612c 0.2837,0.8784 0.5789,1.7540 0.8869 2.6204c 0.5953,1.7768 1.2277,3.4031 1.8948 4.8540c 0.6579,1.4706 1.3611,2.7435 2.1011 3.8075c 1.4756,2.1371 3.1129,3.4073 4.8127 3.7849c 1.6997,0.3776 3.4619,-0.1373 5.1844 -1.5640c 0.8591,-0.7088 1.7045,-1.6376 2.5197 -2.7809c 0.8059,-1.1236 1.5712,-2.4394 2.2727 -3.9281c 0.3404,-0.7223 0.6531,-1.4629 0.9368 -2.2152c 0.2740,-0.7317 0.5167,-1.4705 0.7270 -2.2101c 0.1981,-0.7137 0.3619,-1.4242 0.4904 -2.1257c 0.1144,-0.6716 0.1921,-1.3314 0.2329 -1.9750c 0.0257,-0.6117 0.0139,-1.2059 -0.0351 -1.7798c -0.0637,-0.5427 -0.1642,-1.0660 -0.3003 -1.5685c -0.1491,-0.4750 -0.3323,-0.9324 -0.5479 -1.3723c -0.2256,-0.4188 -0.4811,-0.8251 -0.7644 -1.2202c -0.5828,-0.7555 -1.2585,-1.5039 -2.0060 -2.2605c -0.3698,-0.3866 -0.7533,-0.7844 -1.1480 -1.1946c -0.3878,-0.4251 -0.7846,-0.8673 -1.1888 -1.3267c -0.3943,-0.4804 -0.7946,-0.9808 -1.1998 -1.4999c -0.3936,-0.5437 -0.7917,-1.1069 -1.1939 -1.6868c -0.3901,-0.6054 -0.7849,-1.2265 -1.1844 -1.8590c -0.3881,-0.6567 -0.7823,-1.3224 -1.1831 -1.9918Z"/></g><g stroke-linejoin="miter" stroke-opacity="1.0" fill-opacity="1.0" stroke="rgb(0,0,0)" stroke-width="0.0" fill="rgb(31,59,77)" stroke-linecap="butt" stroke-miterlimit="10.0"><path d="M 166.0992,202.6963 c 0.6880,-0.6450 1.3679,-1.2838 2.0382 -1.9159c 0.6695,-0.6187 1.3294,-1.2330 1.9782 -1.8429c 1.2956,-1.1861 2.5480,-2.3729 3.7445 -3.5609c 2.3889,-2.3084 4.5617,-4.7430 6.4127 -7.2257c 1.8511,-2.4827 3.3805,-5.0135 4.4744 -7.3762c 0.5449,-1.1476 0.9791,-2.2228 1.2878 -3.1884c 0.1533,-0.4659 0.2750,-0.8999 0.3631 -1.2973c 0.0873,-0.3840 0.1410,-0.7292 0.1592 -1.0312c 0.0173,-0.2880 -0.0012,-0.5256 -0.0541 -0.7141c -0.0535,-0.1772 -0.1412,-0.3074 -0.2613 -0.3931c -0.2412,-0.1555 -0.6104,-0.1586 -1.0933 -0.0410c -0.2406,0.0450 -0.5091,0.1106 -0.8035 0.1924c -0.2933,0.0622 -0.6121,0.1339 -0.9547 0.2112c -0.3409,0.0488 -0.7052,0.0975 -1.0912 0.1429c -0.3839,0.0101 -0.7892,0.0130 -1.2142 0.0072c -0.4227,-0.0451 -0.8650,-0.1006 -1.3255 -0.1661c -0.4581,-0.1054 -0.9343,-0.2199 -1.4272 -0.3415c -0.4907,-0.1586 -0.9983,-0.3209 -1.5215 -0.4832c -0.5213,-0.1936 -1.0584,-0.3822 -1.6101 -0.5611c -0.5503,-0.2024 -1.1155,-0.3890 -1.6944 -0.5547c -0.5780,-0.1807 -1.1700,-0.3343 -1.7748 -0.4557c -1.2085,-0.2612 -2.4699,-0.3628 -3.7737 -0.2721c -1.3049,0.1104 -2.5914,0.4250 -3.8455 0.9212c -1.2558,0.5249 -2.4787,1.2218 -3.6541 2.0605c -2.3541,1.7304 -4.5133,3.9391 -6.3644 6.4218c -1.8511,2.4827 -3.3941,5.2394 -4.5228 8.1802c -0.5659,1.4969 -1.0296,3.0620 -1.3781 4.6888c -0.3502,1.6555 -0.5857,3.3823 -0.6931 5.1661c -0.1086,1.8035 -0.0829,3.5626 0.0663 5.2445c 0.0752,0.8317 0.1817,1.6365 0.3184 2.4091c 0.1376,0.7576 0.3056,1.4769 0.5028 2.1529c 0.1986,0.6524 0.4268,1.2554 0.6833 1.8042c 0.2584,0.5175 0.5453,0.9758 0.8594 1.3711c 0.3164,0.3583 0.6602,0.6504 1.0300 0.8743c 0.3722,0.1839 0.7704,0.2986 1.1931 0.3437c 0.4251,0.0058 0.8745,-0.0563 1.3466 -0.1848c 0.4743,-0.1638 0.9710,-0.3900 1.4884 -0.6757c 0.5191,-0.3140 1.0587,-0.6818 1.6167 -1.0991c 0.5592,-0.4369 1.1366,-0.9170 1.7303 -1.4355c 1.1891,-1.0647 2.4411,-2.2455 3.7414 -3.5107c 0.6497,-0.6247 1.3112,-1.2640 1.9826 -1.9155c 0.6708,-0.6403 1.3514,-1.2905 2.0402 -1.9497Z"/></g><g stroke-linejoin="miter" stroke-opacity="1.0" fill-opacity="1.0" stroke="rgb(0,0,0)" stroke-width="0.0" fill="rgb(31,59,77)" stroke-linecap="butt" stroke-miterlimit="10.0"><path d="M 125.2871,153.5477 c 1.5161,2.1570 3.2766,4.2928 5.1025 6.2928c 1.7896,1.9907 3.6707,3.8523 5.5695 5.4973c 1.8987,1.6449 3.8150,3.0732 5.5979 4.1774c 1.7466,1.0950 3.3335,1.8592 4.7147 2.2123c 0.3694,0.0944 0.7315,0.1646 1.0901 0.2125c 0.3800,0.0534 0.7642,0.0865 1.1570 0.1016c 0.4246,0.0232 0.8659,0.0303 1.3279 0.0236c 0.5039,0.0040 1.0360,-0.0040 1.5992 -0.0222c 0.6134,-0.0053 1.2634,-0.0194 1.9510 -0.0410c 0.7428,-0.0074 1.5260,-0.0216 2.3480 -0.0418c 0.8777,-0.0060 1.7934,-0.0182 2.7430 -0.0366c 1.0007,-0.0054 2.0310,-0.0181 3.0840 -0.0388c 1.0949,-0.0100 2.2050,-0.0300 3.3218 -0.0610c 1.1458,-0.0236 2.2886,-0.0607 3.4187 -0.1127c 2.2974,-0.0946 4.4826,-0.2645 6.4801 -0.5205c 0.9795,-0.1329 1.9000,-0.2905 2.7543 -0.4734c 0.8298,-0.1892 1.5884,-0.4050 2.2706 -0.6478c 0.6514,-0.2506 1.2245,-0.5287 1.7163 -0.8338c 0.4585,-0.3136 0.8368,-0.6541 1.1337 -1.0206c 0.2647,-0.3747 0.4462,-0.7654 0.5517 -1.1693c 0.0795,-0.4105 0.0898,-0.8324 0.0378 -1.2628c -0.1620,-0.8757 -0.5351,-1.7758 -1.0727 -2.6798c -1.1741,-1.8334 -2.8147,-3.6335 -4.7134 -5.2785c -1.8987,-1.6449 -4.0556,-3.1347 -6.4539 -4.3963c -1.2486,-0.6434 -2.6055,-1.2420 -4.0891 -1.7920c -0.7708,-0.2824 -1.5828,-0.5550 -2.4394 -0.8177c -0.8825,-0.2693 -1.8165,-0.5305 -2.8056 -0.7833c -1.0212,-0.2610 -2.0786,-0.5089 -3.1709 -0.7444c -1.1256,-0.2440 -2.2872,-0.4758 -3.4818 -0.6958c -1.2255,-0.2279 -2.4821,-0.4435 -3.7646 -0.6465c -1.3070,-0.2093 -2.6350,-0.4047 -3.9766 -0.5855c -2.7219,-0.3715 -5.4503,-0.6722 -8.1099 -0.8914c -1.3112,-0.1049 -2.5898,-0.1854 -3.8261 -0.2403c -1.2073,-0.0474 -2.3628,-0.0667 -3.4576 -0.0567c -1.0530,0.0207 -2.0380,0.0727 -2.9482 0.1565c -0.8591,0.0969 -1.6390,0.2267 -2.3356 0.3896c -0.6409,0.1771 -1.1977,0.3873 -1.6689 0.6301c -0.4160,0.2568 -0.7491,0.5455 -1.0003 0.8646c -0.2010,0.3319 -0.3256,0.6929 -0.3768 1.0811c -0.0093,0.3989 0.0474,0.8232 0.1661 1.2706c 0.1504,0.4556 0.3547,0.9323 0.6085 1.4280c 0.2751,0.5012 0.5922,1.0193 0.9471 1.5524Z"/></g><g stroke-linejoin="miter" stroke-opacity="1.0" fill-opacity="1.0" stroke="rgb(0,0,0)" stroke-width="0.0" fill="rgb(31,59,77)" stroke-linecap="butt" stroke-miterlimit="10.0"><path d="M 187.5991,121.5663 c -0.4428,-0.5804 -0.8995,-1.1133 -1.3667 -1.6024c -0.4742,-0.4741 -0.9565,-0.9093 -1.4438 -1.3086c -0.9886,-0.7688 -1.9864,-1.4167 -2.9728 -1.9577c -1.9924,-1.0406 -3.8975,-1.7425 -5.5972 -2.1201c -1.6997,-0.3776 -3.1941,-0.4310 -4.3998 -0.1009c -0.6126,0.1858 -1.1635,0.4896 -1.6480 0.9312c -0.2492,0.2356 -0.4846,0.5114 -0.7060 0.8309c -0.2285,0.3345 -0.4454,0.7177 -0.6510 1.1541c -0.2154,0.4571 -0.4168,0.9615 -0.6059 1.5131c -0.2006,0.5760 -0.3904,1.2023 -0.5705 1.8779c -0.1927,0.7023 -0.3767,1.4556 -0.5526 2.2577c -0.1885,0.8289 -0.3689,1.7065 -0.5411 2.6291c -0.1837,0.9469 -0.3582,1.9366 -0.5230 2.9641c -0.1737,1.0465 -0.3356,2.1266 -0.4845 3.2339c -0.3124,2.2456 -0.5561,4.5650 -0.7166 6.8978c -0.0756,1.1565 -0.1258,2.3066 -0.1489 3.4431c -0.0152,1.1197 -0.0007,2.2201 0.0447 3.2952c 0.0568,1.0508 0.1464,2.0723 0.2693 3.0594c 0.1366,0.9581 0.3073,1.8801 0.5121 2.7626c 0.2194,0.8516 0.4726,1.6640 0.7589 2.4354c 0.3004,0.7414 0.6328,1.4440 0.9958 2.1072c 0.3756,0.6363 0.7800,1.2369 1.2113 1.8020c 0.4418,0.5429 0.9085,1.0546 1.3979 1.5360c 0.4975,0.4644 1.0036,0.8925 1.5151 1.2874c 0.5167,0.3840 1.0366,0.7394 1.5570 1.0685c 1.0496,0.6395 2.0925,1.1915 3.1111 1.6642c 2.0456,0.9275 3.9716,1.5852 5.6713 1.9628c 1.6997,0.3776 3.1733,0.4752 4.3257 0.2581c 0.5804,-0.1175 1.0861,-0.3255 1.5097 -0.6377c 0.2162,-0.1654 0.4139,-0.3614 0.5929 -0.5909c 0.1841,-0.2404 0.3516,-0.5188 0.5026 -0.8391c 0.1590,-0.3374 0.3002,-0.7140 0.4258 -1.1309c 0.1361,-0.4391 0.2585,-0.9226 0.3693 -1.4509c 0.1234,-0.5552 0.2368,-1.1587 0.3416 -1.8101c 0.1190,-0.6814 0.2305,-1.4128 0.3353 -2.1923c 0.1194,-0.8105 0.2323,-1.6694 0.3389 -2.5736c 0.1203,-0.9331 0.2333,-1.9095 0.3386 -2.9243c 0.1167,-1.0390 0.2238,-2.1125 0.3200 -3.2141c 0.1042,-1.1185 0.1949,-2.2596 0.2704 -3.4161c 0.1605,-2.3328 0.2421,-4.6882 0.2303 -7.0059c -0.0133,-1.1433 -0.0539,-2.2684 -0.1234 -3.3689c -0.0784,-1.0815 -0.1876,-2.1343 -0.3281 -3.1532c -0.1520,-0.9946 -0.3363,-1.9532 -0.5531 -2.8722c -0.2294,-0.8921 -0.4912,-1.7445 -0.7848 -2.5548c -0.3062,-0.7836 -0.6433,-1.5270 -1.0100 -2.2291c -0.3783,-0.6776 -0.7848,-1.3171 -1.2178 -1.9182Z"/></g><g stroke-linejoin="miter" stroke-opacity="1.0" fill-opacity="1.0" stroke="rgb(0,0,0)" stroke-width="0.0" fill="rgb(31,59,77)" stroke-linecap="butt" stroke-miterlimit="10.0"><path d="M 203.4497,170.5233 c 0.6582,-0.1501 1.3120,-0.3548 1.9595 -0.6096c 0.6484,-0.2697 1.2905,-0.5864 1.9242 -0.9450c 1.2696,-0.7536 2.5047,-1.6543 3.6904 -2.6635c 2.3756,-2.0879 4.5459,-4.4818 6.3970 -6.9646c 1.8511,-2.4827 3.3829,-5.0542 4.4901 -7.6374c 0.5557,-1.3264 1.0071,-2.6878 1.3418 -4.0858c 0.1684,-0.7172 0.3080,-1.4488 0.4171 -2.1952c 0.1100,-0.7613 0.1898,-1.5405 0.2378 -2.3375c 0.0490,-0.8136 0.0651,-1.6272 0.0498 -2.4393c -0.0144,-0.8267 -0.0604,-1.6503 -0.1364 -2.4681c -0.1503,-1.6639 -0.4224,-3.2821 -0.8057 -4.8183c -0.1921,-0.7617 -0.4125,-1.4936 -0.6601 -2.1902c -0.2485,-0.6818 -0.5245,-1.3215 -0.8268 -1.9140c -0.3038,-0.5682 -0.6342,-1.0828 -0.9899 -1.5395c -0.3577,-0.4244 -0.7410,-0.7861 -1.1486 -1.0819c -0.4099,-0.2582 -0.8441,-0.4479 -1.3013 -0.5679c -0.4596,-0.0802 -0.9421,-0.0905 -1.4459 -0.0314c -0.5061,0.0975 -1.0334,0.2619 -1.5801 0.4912c -0.5488,0.2632 -1.1168,0.5868 -1.7022 0.9674c -0.5870,0.4077 -1.1911,0.8668 -1.8105 1.3731c -0.6205,0.5254 -1.2559,1.0920 -1.9044 1.6956c -1.2988,1.2379 -2.6478,2.5914 -4.0328 4.0323c -1.3846,1.4343 -2.7384,2.8658 -4.0475 4.2756c -1.3078,1.3877 -2.5712,2.7581 -3.7771 4.1023c -2.4090,2.6421 -4.5924,5.2527 -6.4434 7.7354c -1.8511,2.4827 -3.3699,4.8375 -4.4437 6.8665c -0.5355,0.9915 -0.9587,1.8830 -1.2552 2.6470c -0.2952,0.7419 -0.4635,1.3518 -0.4911 1.8117c -0.0273,0.4533 0.0860,0.7573 0.3255 0.9400c 0.1188,0.1068 0.2687,0.1913 0.4479 0.2579c 0.1780,0.0856 0.3849,0.1593 0.6188 0.2252c 0.2323,0.0930 0.4913,0.1837 0.7753 0.2757c 0.2819,0.1259 0.5885,0.2574 0.9181 0.3968c 0.3273,0.1777 0.6773,0.3656 1.0486 0.5642c 0.3689,0.2383 0.7590,0.4873 1.1689 0.7454c 0.4076,0.2958 0.8351,0.5983 1.2810 0.9044c 0.4440,0.3383 0.9068,0.6754 1.3871 1.0068c 0.4788,0.3557 0.9755,0.6995 1.4888 1.0261c 0.5124,0.3415 1.0418,0.6590 1.5869 0.9471c 1.0895,0.5890 2.2443,1.0233 3.4538 1.2666c 0.6056,0.1074 1.2253,0.1615 1.8577 0.1595c 0.6332,-0.0167 1.2791,-0.0910 1.9363 -0.2245Z"/></g><g stroke-linejoin="miter" stroke-opacity="1.0" fill-opacity="1.0" stroke="rgb(0,0,0)" stroke-width="0.0" fill="rgb(31,59,77)" stroke-linecap="butt" stroke-miterlimit="10.0"><path d="M 192.6772,170.7737 c -2.4059,1.1545 -3.6085,2.5328 -3.6977 4.0433c -0.0346,1.5244 0.9795,3.1644 2.8782 4.8094c 1.8987,1.6449 4.6821,3.2948 8.2891 4.8654c 3.6617,1.5845 8.2117,3.1062 13.5149 4.4618c 1.3136,0.3358 2.6313,0.6502 3.9449 0.9422c 1.2972,0.2878 2.5828,0.5514 3.8480 0.7894c 1.2381,0.2311 2.4474,0.4346 3.6191 0.6093c 1.1337,0.1650 2.2216,0.2990 3.2557 0.4012c 0.9864,0.0900 1.9124,0.1465 2.7716 0.1688c 0.8047,0.0084 1.5384,-0.0184 2.1972 -0.0803c 0.6017,-0.0765 1.1277,-0.1883 1.5766 -0.3348c 0.3942,-0.1604 0.7143,-0.3547 0.9614 -0.5814c 0.1998,-0.2388 0.3331,-0.5085 0.4032 -0.8070c 0.0342,-0.3077 0.0142,-0.6421 -0.0553 -1.0007c -0.1995,-0.7328 -0.5362,-1.5474 -0.9692 -2.4247c -0.2082,-0.4365 -0.4275,-0.8854 -0.6544 -1.3447c -0.2086,-0.4546 -0.4189,-0.9181 -0.6295 -1.3891c -0.1845,-0.4643 -0.3662,-0.9353 -0.5457 -1.4120c -0.1496,-0.4691 -0.2970,-0.9439 -0.4446 -1.4240c -0.1175,-0.4724 -0.2359,-0.9398 -0.3585 -1.4020c -0.0974,-0.4557 -0.2051,-0.9078 -0.3260 -1.3558c -0.1843,-0.8814 -0.4582,-1.7562 -0.8398 -2.6203c -0.6612,-1.7023 -1.9473,-3.4118 -3.8460 -5.0567c -1.8987,-1.6449 -4.4101,-3.2253 -7.3213 -4.6180c -1.4046,-0.6833 -2.8607,-1.3073 -4.3219 -1.8515c -0.7018,-0.2648 -1.3959,-0.5073 -2.0755 -0.7247c -0.6546,-0.2111 -1.2886,-0.3955 -1.8954 -0.5507c -0.5767,-0.1474 -1.1084,-0.2609 -1.5926 -0.3409c -0.4543,-0.0724 -0.8611,-0.1113 -1.2198 -0.1176c -0.3327,0.0003 -0.6204,0.0324 -0.8645 0.0948c -0.2258,0.0671 -0.4140,0.1630 -0.5680 0.2858c -0.2913,0.2498 -0.4978,0.5937 -0.6605 1.0128c -0.1116,0.2018 -0.2273,0.4185 -0.3521 0.6478c -0.1606,0.2201 -0.3392,0.4506 -0.5390 0.6894c -0.2471,0.2267 -0.5219,0.4602 -0.8256 0.6991c -0.3583,0.2249 -0.7485,0.4544 -1.1691 0.6878c -0.4776,0.2188 -0.9850,0.4417 -1.5181 0.6686c -0.5875,0.2130 -1.1966,0.4311 -1.8209 0.6548c -0.6719,0.2116 -1.3524,0.4305 -2.0333 0.6577c -0.7189,0.2175 -1.4303,0.4454 -2.1251 0.6850c -0.7219,0.2326 -1.4190,0.4789 -2.0824 0.7402c -0.6798,0.2571 -1.3185,0.5309 -1.9077 0.8227Z"/></g><g stroke-linejoin="miter" stroke-opacity="1.0" fill-opacity="1.0" stroke="rgb(0,0,0)" stroke-width="0.0" fill="rgb(55,120,191)" stroke-linecap="butt" stroke-miterlimit="10.0"><path d="M 170.3342,169.1981 c 2.5576,4.2859 5.5315,8.1661 8.3402 10.9748c 2.8087,2.8087 5.4522,4.5459 7.1805 4.5459c 0.8707,0.0000 1.4897,-0.4343 1.9232 -1.2197c 0.2661,-0.3927 0.5065,-0.8732 0.7285 -1.4310c 0.2751,-0.5578 0.5441,-1.1930 0.8094 -1.8952c 0.3322,-0.7022 0.6673,-1.4713 1.0002 -2.2970c 0.4049,-0.8257 0.8064,-1.7080 1.1908 -2.6364c 0.4519,-0.9284 0.8779,-1.9030 1.2575 -2.9134c 0.4346,-1.0104 0.8089,-2.0565 1.0974 -3.1280c 0.3274,-1.0715 0.5361,-2.1176 0.6231 -3.1280c 0.1064,-1.0104 0.0767,-1.9850 -0.0869 -2.9134c -0.3045,-1.8569 -1.1899,-3.5291 -2.5942 -4.9334c -1.4043,-1.4043 -3.3277,-2.5408 -5.6655 -3.3262c -1.1575,-0.3927 -2.4073,-0.6976 -3.7309 -0.9044c -1.3042,-0.2067 -2.6675,-0.3153 -4.0664 -0.3153c -1.3600,-0.0000 -2.6719,0.1086 -3.9100 0.3153c -1.1831,0.2067 -2.2789,0.5117 -3.2665 0.9044c -0.9202,0.3927 -1.7234,0.8732 -2.3962 1.4310c -0.6008,0.5578 -1.0698,1.1930 -1.4020 1.8952c -0.2653,0.7022 -0.4004,1.4713 -0.4076 2.2970c 0.0459,0.8257 0.2073,1.7080 0.4769 2.6364c 0.6380,1.8569 1.6262,3.8984 2.8984 6.0414Z"/></g></svg>